<mxfile host="app.diagrams.net" modified="2024-04-11T21:32:14.070Z" agent="Mozilla/5.0 (X11; Linux x86_64; rv:124.0) Gecko/20100101 Firefox/124.0" etag="WsgstkLGDWmwqdli7cJP" version="24.2.3" type="github">
  <diagram name="login" id="b2TcujqG5LJ7InyKqy1t">
    <mxGraphModel dx="2022" dy="1802" grid="1" gridSize="10" guides="1" tooltips="1" connect="1" arrows="1" fold="1" page="1" pageScale="1" pageWidth="827" pageHeight="1169" math="0" shadow="0">
      <root>
        <mxCell id="0" />
        <mxCell id="1" parent="0" />
        <mxCell id="Vl1b397wToPMkSfu4RpV-6" value="" style="group" vertex="1" connectable="0" parent="1">
          <mxGeometry x="-80" y="90" width="280" height="202" as="geometry" />
        </mxCell>
        <mxCell id="Vl1b397wToPMkSfu4RpV-2" value="" style="strokeWidth=2;html=1;shape=mxgraph.flowchart.database;whiteSpace=wrap;" vertex="1" parent="Vl1b397wToPMkSfu4RpV-6">
          <mxGeometry x="-10" y="-60" width="120" height="123.67346938775509" as="geometry" />
        </mxCell>
        <mxCell id="Vl1b397wToPMkSfu4RpV-3" value="Pool de logins" style="text;html=1;align=center;verticalAlign=middle;resizable=0;points=[];autosize=1;strokeColor=none;fillColor=none;" vertex="1" parent="Vl1b397wToPMkSfu4RpV-6">
          <mxGeometry x="-10" y="86.00326530612244" width="100" height="30" as="geometry" />
        </mxCell>
        <mxCell id="Vl1b397wToPMkSfu4RpV-17" value="Atualiza credencial com error" style="text;html=1;align=center;verticalAlign=middle;resizable=0;points=[];autosize=1;strokeColor=none;fillColor=none;" vertex="1" parent="Vl1b397wToPMkSfu4RpV-6">
          <mxGeometry x="100" y="110" width="180" height="30" as="geometry" />
        </mxCell>
        <mxCell id="Vl1b397wToPMkSfu4RpV-7" value="" style="group" vertex="1" connectable="0" parent="1">
          <mxGeometry x="-70" y="430" width="110" height="100" as="geometry" />
        </mxCell>
        <mxCell id="Vl1b397wToPMkSfu4RpV-4" value="" style="strokeWidth=2;html=1;shape=mxgraph.flowchart.database;whiteSpace=wrap;" vertex="1" parent="Vl1b397wToPMkSfu4RpV-7">
          <mxGeometry x="25" width="60" height="60" as="geometry" />
        </mxCell>
        <mxCell id="Vl1b397wToPMkSfu4RpV-5" value="&lt;div&gt;Base de twiters&lt;/div&gt;" style="text;html=1;align=center;verticalAlign=middle;resizable=0;points=[];autosize=1;strokeColor=none;fillColor=none;" vertex="1" parent="Vl1b397wToPMkSfu4RpV-7">
          <mxGeometry y="70" width="110" height="30" as="geometry" />
        </mxCell>
        <mxCell id="Vl1b397wToPMkSfu4RpV-8" value="" style="verticalLabelPosition=bottom;verticalAlign=top;html=1;shape=mxgraph.basic.rect;fillColor2=none;strokeWidth=1;size=20;indent=5;" vertex="1" parent="1">
          <mxGeometry x="270" y="70" width="330" height="210" as="geometry" />
        </mxCell>
        <mxCell id="Vl1b397wToPMkSfu4RpV-10" style="edgeStyle=orthogonalEdgeStyle;rounded=0;orthogonalLoop=1;jettySize=auto;html=1;entryX=1.042;entryY=0.558;entryDx=0;entryDy=0;entryPerimeter=0;" edge="1" parent="1" source="Vl1b397wToPMkSfu4RpV-8" target="Vl1b397wToPMkSfu4RpV-2">
          <mxGeometry relative="1" as="geometry" />
        </mxCell>
        <mxCell id="Vl1b397wToPMkSfu4RpV-11" value="Pegar credenciais" style="text;html=1;align=center;verticalAlign=middle;resizable=0;points=[];autosize=1;strokeColor=none;fillColor=none;" vertex="1" parent="1">
          <mxGeometry x="30" y="70" width="120" height="30" as="geometry" />
        </mxCell>
        <mxCell id="Vl1b397wToPMkSfu4RpV-15" value="" style="edgeStyle=orthogonalEdgeStyle;rounded=0;orthogonalLoop=1;jettySize=auto;html=1;" edge="1" parent="1" source="Vl1b397wToPMkSfu4RpV-13" target="Vl1b397wToPMkSfu4RpV-14">
          <mxGeometry relative="1" as="geometry" />
        </mxCell>
        <mxCell id="Vl1b397wToPMkSfu4RpV-19" value="" style="edgeStyle=orthogonalEdgeStyle;rounded=0;orthogonalLoop=1;jettySize=auto;html=1;" edge="1" parent="1" source="Vl1b397wToPMkSfu4RpV-13" target="Vl1b397wToPMkSfu4RpV-18">
          <mxGeometry relative="1" as="geometry" />
        </mxCell>
        <mxCell id="Vl1b397wToPMkSfu4RpV-13" value="Tenta logar no twitter" style="rounded=1;whiteSpace=wrap;html=1;" vertex="1" parent="1">
          <mxGeometry x="290" y="90" width="110" height="50" as="geometry" />
        </mxCell>
        <mxCell id="Vl1b397wToPMkSfu4RpV-14" value="Marcar credencial com erro" style="shape=parallelogram;perimeter=parallelogramPerimeter;whiteSpace=wrap;html=1;fixedSize=1;rounded=1;fillColor=#FF9999;strokeColor=#b85450;" vertex="1" parent="1">
          <mxGeometry x="285" y="200" width="120" height="60" as="geometry" />
        </mxCell>
        <mxCell id="Vl1b397wToPMkSfu4RpV-16" style="edgeStyle=orthogonalEdgeStyle;rounded=0;orthogonalLoop=1;jettySize=auto;html=1;entryX=0.81;entryY=0.966;entryDx=0;entryDy=0;entryPerimeter=0;strokeColor=#FF0000;" edge="1" parent="1" source="Vl1b397wToPMkSfu4RpV-14" target="Vl1b397wToPMkSfu4RpV-2">
          <mxGeometry relative="1" as="geometry" />
        </mxCell>
        <mxCell id="Vl1b397wToPMkSfu4RpV-18" value="Retorna token" style="rounded=1;whiteSpace=wrap;html=1;" vertex="1" parent="1">
          <mxGeometry x="450" y="85" width="120" height="60" as="geometry" />
        </mxCell>
        <mxCell id="Vl1b397wToPMkSfu4RpV-20" value="" style="group" vertex="1" connectable="0" parent="1">
          <mxGeometry x="-90" y="-110" width="110" height="100" as="geometry" />
        </mxCell>
        <mxCell id="Vl1b397wToPMkSfu4RpV-21" value="" style="strokeWidth=2;html=1;shape=mxgraph.flowchart.database;whiteSpace=wrap;" vertex="1" parent="Vl1b397wToPMkSfu4RpV-20">
          <mxGeometry x="25" width="60" height="60" as="geometry" />
        </mxCell>
        <mxCell id="Vl1b397wToPMkSfu4RpV-22" value="&lt;div&gt;Base de token&lt;/div&gt;" style="text;html=1;align=center;verticalAlign=middle;resizable=0;points=[];autosize=1;strokeColor=none;fillColor=none;" vertex="1" parent="Vl1b397wToPMkSfu4RpV-20">
          <mxGeometry x="5" y="70" width="100" height="30" as="geometry" />
        </mxCell>
        <mxCell id="Vl1b397wToPMkSfu4RpV-23" style="edgeStyle=orthogonalEdgeStyle;rounded=0;orthogonalLoop=1;jettySize=auto;html=1;entryX=1;entryY=0.5;entryDx=0;entryDy=0;entryPerimeter=0;" edge="1" parent="1" source="Vl1b397wToPMkSfu4RpV-18" target="Vl1b397wToPMkSfu4RpV-21">
          <mxGeometry relative="1" as="geometry">
            <Array as="points">
              <mxPoint x="510" y="-90" />
            </Array>
          </mxGeometry>
        </mxCell>
      </root>
    </mxGraphModel>
  </diagram>
</mxfile>
